<svg width="296" height="296" viewBox="0 0 296 296" fill="none" xmlns="http://www.w3.org/2000/svg">
<path d="M160.527 224.22H98.8699V271.775H160.527V224.22Z" fill="#EBEBEB"/>
<path d="M145.081 271.444C144.999 271.444 144.927 260.841 144.927 247.764C144.927 234.687 144.999 224.084 145.081 224.084C145.164 224.084 145.235 234.687 145.235 247.764C145.235 260.841 145.164 271.444 145.081 271.444Z" fill="#E0E0E0"/>
<path d="M155.299 260.954H150.575V266.299H155.299V260.954Z" fill="#FAFAFA"/>
<path d="M124.687 224.344H117.684V234.491H124.687V224.344Z" fill="#E0E0E0"/>
<path d="M124.687 261.486H117.684V271.633H124.687V261.486Z" fill="#E0E0E0"/>
<path d="M272.409 212.297H194.661V272.261H272.409V212.297Z" fill="#EBEBEB"/>
<path d="M252.926 271.835C252.843 271.835 252.772 258.473 252.772 241.986C252.772 225.499 252.843 212.137 252.926 212.137C253.009 212.137 253.08 225.499 253.08 241.986C253.08 258.473 253.015 271.835 252.926 271.835Z" fill="#E0E0E0"/>
<path d="M265.814 258.609H259.853V265.346H265.814V258.609Z" fill="#FAFAFA"/>
<path d="M227.21 212.451H218.377V225.244H227.21V212.451Z" fill="#E0E0E0"/>
<path d="M227.21 259.284H218.377V272.077H227.21V259.284Z" fill="#E0E0E0"/>
<path d="M48.2243 214.061C51.3737 212.439 55.0797 212.226 58.5725 212.806C60.4491 213.114 62.4027 213.676 63.6814 215.085C64.9601 216.494 65.1969 218.975 63.7347 220.188C62.8585 220.911 61.6449 221.017 60.5083 221.005C57.7733 220.97 54.7422 220.49 52.5577 222.136C51.3086 223.077 50.4798 224.634 49.0057 225.096C47.5317 225.558 45.9037 224.688 45.1341 223.373C44.4221 222.003 44.2652 220.411 44.696 218.928C44.8703 217.9 45.2793 216.926 45.8913 216.082C46.5032 215.238 47.3016 214.546 48.2243 214.061Z" fill="#EBEBEB"/>
<path d="M41.0138 200.143C42.9378 202.89 46.6792 201.984 48.4138 200.303C50.1483 198.622 50.8824 196.195 51.5455 193.88C53.0728 188.582 54.6061 183.023 53.4754 177.63C53.2031 175.994 52.484 174.466 51.3975 173.213C50.8474 172.598 50.1461 172.138 49.3632 171.877C48.5802 171.616 47.7428 171.565 46.9338 171.727C45.0453 172.225 43.8731 174.095 43.0266 175.83C40.5306 181.015 39.2241 186.693 39.2023 192.447C39.2023 195.129 39.5042 197.935 41.0138 200.143Z" fill="#EBEBEB"/>
<path d="M35.7331 204.086C37.8229 201.606 38.2195 197.994 37.2901 194.886C36.3607 191.778 34.2591 189.138 31.8378 186.977C28.99 184.444 25.6763 182.49 22.0816 181.223C20.6884 180.66 19.1899 180.406 17.689 180.477C16.9402 180.52 16.2133 180.745 15.5715 181.133C14.9297 181.521 14.3925 182.06 14.0067 182.703C12.9767 184.663 13.9653 187.036 15.0309 188.978C16.9074 192.395 19.0491 195.659 21.4363 198.74C23.3603 201.215 25.5803 203.66 28.4871 204.779C31.3938 205.898 34.4603 205.767 36.0114 203.737" fill="#EBEBEB"/>
<path d="M40.8836 241.595C40.9864 241.188 41.0459 240.771 41.0612 240.352C41.15 239.44 41.2565 238.298 41.3927 236.942C41.5624 235.265 41.8173 233.597 42.1564 231.946C42.6012 229.926 43.209 227.947 43.9738 226.026C44.7239 224.117 45.7382 222.324 46.9871 220.698C48.008 219.375 49.3077 218.294 50.7936 217.53C51.8042 217.032 52.8871 216.697 54.0023 216.536C54.4221 216.519 54.8389 216.458 55.2455 216.352C54.8264 216.306 54.4036 216.306 53.9845 216.352C52.8264 216.44 51.6935 216.734 50.6397 217.223C49.0705 217.963 47.6945 219.057 46.62 220.419C45.313 222.067 44.2595 223.901 43.4943 225.86C42.7304 227.804 42.1362 229.81 41.7183 231.857C41.3962 233.529 41.1728 235.22 41.0493 236.918C40.9428 238.369 40.9013 239.541 40.8836 240.352C40.8399 240.765 40.8399 241.182 40.8836 241.595Z" fill="#E0E0E0"/>
<path d="M41.1203 238.979C41.1554 238.783 41.1673 238.585 41.1558 238.387C41.1558 237.948 41.1558 237.398 41.1558 236.729C41.1558 235.29 41.1558 233.207 41.2268 230.637C41.3571 225.499 41.8188 219.981 42.6536 212.173C43.4646 204.838 44.548 196.307 45.6964 190.76C45.9392 189.499 46.1878 188.363 46.4246 187.368C46.6614 186.373 46.8331 185.509 47.0166 184.816C47.2001 184.124 47.3008 183.632 47.4073 183.206C47.4652 183.014 47.4991 182.815 47.508 182.614C47.4188 182.787 47.3512 182.97 47.3067 183.159C47.1764 183.579 47.0166 184.1 46.8212 184.745C46.6259 185.391 46.3891 186.291 46.1404 187.279C45.8918 188.268 45.6076 189.404 45.3412 190.665C43.9191 197.226 42.85 203.858 42.1385 210.533C41.286 218.347 40.9012 225.463 40.8657 230.614C40.8657 233.189 40.8657 235.279 40.9545 236.717C40.996 237.386 41.0315 237.937 41.0552 238.369C41.0523 238.574 41.0741 238.779 41.1203 238.979Z" fill="#E0E0E0"/>
<path d="M41.1559 225.256C41.201 224.679 41.201 224.099 41.1559 223.521C41.0908 222.408 40.9369 220.804 40.6231 218.833C40.2359 216.528 39.718 214.247 39.0721 212.001C38.3255 209.237 37.3696 206.534 36.2127 203.914C34.232 199.088 31.3895 194.663 27.8241 190.855C27.2054 190.201 26.5449 189.588 25.8468 189.02C25.5449 188.759 25.2548 188.505 25.0061 188.303L24.2721 187.776C23.8113 187.425 23.3222 187.112 22.8098 186.841C22.7269 186.954 24.8759 188.22 27.5873 191.104C31.0361 194.947 33.803 199.352 35.7687 204.128C36.9056 206.729 37.8649 209.406 38.6399 212.137C39.2909 214.362 39.8303 216.619 40.2561 218.898C40.6113 220.846 40.8481 222.45 40.9428 223.539C40.9681 224.116 41.0394 224.69 41.1559 225.256Z" fill="#E0E0E0"/>
<path d="M26.9716 247.373L28.345 266.216H52.5519L53.9253 247.373H26.9716Z" fill="#EBEBEB"/>
<path d="M56.8084 239.949H24.6332V247.373H56.8084V239.949Z" fill="#EBEBEB"/>
<path d="M24.6332 265.494V267.548H26.1487H56.2815V265.494H24.6332Z" fill="#E0E0E0"/>
<path d="M27.6287 270.947L26.1487 267.324H55.1271L53.3984 270.947H27.6287Z" fill="#E0E0E0"/>
<path d="M53.4754 253.53C53.4451 253.593 53.4074 253.653 53.3629 253.708C53.2682 253.832 53.1438 253.992 53.0018 254.187L51.5928 255.963L51.5277 256.046L51.4685 255.963L48.0053 251.174H48.2006L44.7907 255.999L44.6842 256.152L44.5658 256.01L40.5224 251.197H40.7533L40.5342 251.482L36.9171 256.01L36.7928 256.164L36.6862 256.004L33.2704 251.18H33.4717L29.2685 255.963L29.1974 256.052L29.1382 255.951L27.824 253.773C27.6819 253.536 27.5754 253.34 27.4866 253.181C27.4419 253.115 27.4061 253.043 27.38 252.968C27.4354 253.024 27.4832 253.088 27.5221 253.157L27.895 253.719L29.2744 255.892H29.1442L33.2882 251.049L33.3888 250.925L33.4835 251.055L36.929 255.862H36.704L40.3093 251.322C40.3862 251.227 40.4632 251.132 40.5283 251.044L40.6467 250.896L40.7651 251.038L44.7966 255.862H44.5717L48.0171 251.061L48.1178 250.919L48.2125 251.061C49.58 253.009 50.7403 254.661 51.6046 255.904H51.4803L52.9485 254.128C53.1083 253.944 53.2386 253.796 53.3392 253.672C53.3811 253.621 53.4266 253.574 53.4754 253.53Z" fill="#F5F5F5"/>
<path d="M54.2628 247.249C54.2628 247.332 48.1948 247.403 40.7178 247.403C33.2408 247.403 27.1729 247.332 27.1729 247.249C27.1729 247.166 33.2349 247.101 40.7178 247.101C48.2007 247.101 54.2628 247.166 54.2628 247.249Z" fill="#F5F5F5"/>
<path d="M224.026 33.6263L219.065 33.6531L219.199 58.3391L224.159 58.3123L224.026 33.6263Z" fill="#E0E0E0"/>
<path d="M188.933 33.692L176.087 33.7615L176.161 47.3891L189.007 47.3196L188.933 33.692Z" fill="#EBEBEB"/>
<path d="M201.72 33.6228L188.874 33.6923L188.947 47.3199L201.793 47.2504L201.72 33.6228Z" fill="#F5F5F5"/>
<path d="M176.102 37.5328C184.643 37.6038 193.187 37.5644 201.736 37.4144C201.772 37.4144 201.807 37.4001 201.832 37.3745C201.858 37.349 201.872 37.3144 201.872 37.2782C201.872 37.2421 201.858 37.2075 201.832 37.182C201.807 37.1564 201.772 37.1421 201.736 37.1421C193.199 37.0947 184.639 37.1421 176.102 37.3019C176.076 37.3079 176.053 37.3225 176.036 37.3435C176.019 37.3645 176.01 37.3905 176.01 37.4174C176.01 37.4442 176.019 37.4702 176.036 37.4912C176.053 37.5122 176.076 37.5268 176.102 37.5328Z" fill="#E0E0E0"/>
<path d="M191.421 47.0931L168.079 47.2194L168.139 58.3251L191.481 58.1988L191.421 47.0931Z" fill="#EBEBEB"/>
<path d="M214.65 46.9674L191.308 47.0937L191.368 58.1994L214.71 58.0732L214.65 46.9674Z" fill="#F5F5F5"/>
<path d="M168.093 50.32C183.597 50.4917 199.155 50.32 214.665 50.0891C214.701 50.0891 214.736 50.0748 214.761 50.0492C214.787 50.0237 214.801 49.9891 214.801 49.953C214.801 49.9168 214.787 49.8822 214.761 49.8567C214.736 49.8311 214.701 49.8168 214.665 49.8168C199.161 49.7339 183.597 49.7398 168.093 50.0832C168.061 50.0832 168.031 50.0957 168.009 50.1179C167.987 50.1401 167.974 50.1702 167.974 50.2016C167.974 50.233 167.987 50.2631 168.009 50.2853C168.031 50.3075 168.061 50.32 168.093 50.32Z" fill="#E0E0E0"/>
<path d="M249.794 58.3357H159.36V62.3139H249.794V58.3357Z" fill="#E0E0E0"/>
<path d="M177.837 60.2478H174.166V73.8224H177.837V60.2478Z" fill="#E0E0E0"/>
<path d="M232.638 60.2478H228.968V73.8224H232.638V60.2478Z" fill="#E0E0E0"/>
<path d="M228.866 24.4182L223.905 24.445L224.089 58.3957L229.05 58.3689L228.866 24.4182Z" fill="#EBEBEB"/>
<path d="M236.614 30.7402L228.906 30.7819L229.055 58.2977L236.763 58.256L236.614 30.7402Z" fill="#F5F5F5"/>
<path d="M236.563 36.0528C234.001 36.2338 231.429 36.2338 228.867 36.0528C231.43 35.8797 234.001 35.8797 236.563 36.0528Z" fill="#E0E0E0"/>
<path d="M236.563 34.928C235.283 35.0576 233.995 35.1011 232.709 35.0582C231.423 35.1008 230.136 35.0573 228.855 34.928C231.417 34.747 233.989 34.747 236.551 34.928H236.563Z" fill="#E0E0E0"/>
<path d="M236.563 54.1266C234.001 54.3075 231.429 54.3075 228.867 54.1266C231.43 53.9534 234.001 53.9534 236.563 54.1266Z" fill="#E0E0E0"/>
<path d="M236.563 52.9722C234.001 53.1453 231.43 53.1453 228.867 52.9722C231.429 52.7912 234.001 52.7912 236.563 52.9722Z" fill="#E0E0E0"/>
<path d="M232.834 50.4502C232.763 50.4502 232.703 47.6738 232.703 44.252C232.703 40.8302 232.763 38.0478 232.834 38.0478C232.905 38.0478 232.97 40.8243 232.97 44.252C232.97 47.6797 232.911 50.4502 232.834 50.4502Z" fill="#E0E0E0"/>
<path d="M245.041 37.5091H236.652V58.2765H245.041V37.5091Z" fill="#EBEBEB"/>
<path d="M226.31 31.6542C227.098 31.6542 227.737 31.0155 227.737 30.2275C227.737 29.4396 227.098 28.8008 226.31 28.8008C225.522 28.8008 224.883 29.4396 224.883 30.2275C224.883 31.0155 225.522 31.6542 226.31 31.6542Z" fill="#E0E0E0"/>
<path d="M226.754 34.1525H225.872V54.3515H226.754V34.1525Z" fill="#E0E0E0"/>
<path d="M275.079 271.935C275.079 272.024 218.176 272.089 148.006 272.089C77.8361 272.089 20.9213 272.024 20.9213 271.935C20.9213 271.846 77.8125 271.781 148.006 271.781C218.199 271.781 275.079 271.852 275.079 271.935Z" fill="#263238"/>
<path d="M256.792 256.443C256.819 256.356 256.855 256.273 256.898 256.194C256.981 256.016 257.094 255.78 257.23 255.478C257.642 254.553 257.973 253.594 258.219 252.612C258.87 250.067 259.101 246.177 258.136 241.56C257.612 239.042 256.925 236.56 256.081 234.13C255.217 231.496 254.205 228.701 253.382 225.676C252.453 222.521 252.004 219.244 252.05 215.956C252.174 212.516 253.192 209.088 254.311 205.667C255.43 202.245 256.585 198.912 256.928 195.538C257.31 192.302 256.659 189.028 255.069 186.184C253.589 183.455 251.724 181.116 250.333 178.701C249.031 176.457 248.071 174.03 247.486 171.502C246.646 167.842 246.583 164.047 247.302 160.361C247.564 159.012 247.961 157.694 248.486 156.424C248.47 156.513 248.446 156.6 248.415 156.685L248.178 157.436C247.977 158.1 247.711 159.094 247.456 160.396C246.794 164.066 246.893 167.832 247.746 171.461C248.34 173.958 249.304 176.353 250.605 178.565C251.997 180.933 253.867 183.301 255.383 186.042C257.012 188.943 257.681 192.286 257.295 195.591C256.946 199.013 255.785 202.381 254.667 205.797C253.548 209.213 252.541 212.605 252.417 215.985C252.364 219.241 252.803 222.486 253.719 225.611C254.53 228.619 255.525 231.413 256.383 234.059C257.219 236.502 257.892 238.998 258.396 241.53C259.337 246.183 259.071 250.114 258.396 252.666C258.132 253.649 257.777 254.607 257.336 255.525L256.969 256.229C256.919 256.307 256.859 256.379 256.792 256.443Z" fill="#263238"/>
<path d="M252.227 181.087C252.227 181.087 249.398 172.023 254.477 166.719C254.516 166.676 254.567 166.645 254.623 166.63C254.679 166.614 254.738 166.614 254.794 166.63C254.85 166.646 254.9 166.677 254.939 166.72C254.978 166.763 255.005 166.816 255.016 166.873C255.288 168.371 255.626 172.929 252.227 181.087Z" fill="#3F72AF"/>
<path d="M253.926 169.738C253.918 170.3 253.854 170.859 253.737 171.408C253.548 172.562 253.329 173.912 253.092 175.404C252.855 176.896 252.636 178.251 252.452 179.4C252.401 179.96 252.302 180.514 252.156 181.057C252.101 180.497 252.113 179.933 252.192 179.376C252.287 178.34 252.47 176.919 252.725 175.356C252.979 173.793 253.258 172.396 253.477 171.372C253.563 170.812 253.714 170.264 253.926 169.738Z" fill="#263238"/>
<path d="M255.555 202.464C255.555 202.464 257.289 193.128 264.263 190.819C264.318 190.8 264.377 190.797 264.434 190.809C264.491 190.822 264.543 190.85 264.585 190.89C264.627 190.931 264.656 190.982 264.67 191.039C264.685 191.095 264.683 191.155 264.665 191.21C264.204 192.649 262.374 196.834 255.555 202.464Z" fill="#3F72AF"/>
<path d="M262.363 193.217C262.092 193.71 261.775 194.176 261.415 194.608L258.97 197.835L256.543 201.073C256.238 201.543 255.891 201.984 255.507 202.393C255.723 201.872 256.002 201.379 256.336 200.925C256.928 200.055 257.733 198.882 258.704 197.621C259.675 196.36 260.557 195.253 261.226 194.448C261.558 193.997 261.94 193.584 262.363 193.217Z" fill="#263238"/>
<path d="M253.672 225.866C253.672 225.866 252.618 216.429 258.621 212.196C258.667 212.16 258.723 212.138 258.781 212.133C258.84 212.127 258.899 212.138 258.951 212.165C259.003 212.192 259.047 212.233 259.077 212.284C259.106 212.334 259.121 212.392 259.118 212.451C259.101 213.972 258.562 218.507 253.672 225.866Z" fill="#3F72AF"/>
<path d="M257.52 215.05C257.41 215.601 257.241 216.139 257.017 216.654L255.62 220.455C255.099 221.876 254.631 223.16 254.234 224.256C254.082 224.795 253.884 225.319 253.642 225.824C253.697 225.263 253.82 224.71 254.009 224.179C254.299 223.184 254.749 221.811 255.3 220.331C255.85 218.851 256.389 217.519 256.798 216.565C256.986 216.037 257.228 215.529 257.52 215.05Z" fill="#263238"/>
<path d="M258.923 249.416C258.923 249.416 258.213 239.944 264.358 235.93C264.406 235.897 264.462 235.878 264.52 235.875C264.579 235.872 264.637 235.885 264.688 235.914C264.739 235.942 264.781 235.984 264.809 236.035C264.838 236.086 264.852 236.144 264.849 236.202C264.778 237.724 264.079 242.24 258.923 249.416Z" fill="#3F72AF"/>
<path d="M263.138 238.748C263.006 239.294 262.817 239.826 262.576 240.334C262.138 241.412 261.617 242.702 261.042 244.082C260.468 245.461 259.965 246.746 259.527 247.829C259.352 248.363 259.128 248.881 258.858 249.374C258.936 248.814 259.082 248.266 259.29 247.74C259.616 246.757 260.113 245.408 260.717 243.945C261.321 242.483 261.901 241.169 262.345 240.234C262.556 239.711 262.821 239.213 263.138 238.748Z" fill="#263238"/>
<path d="M248.155 173.124C248.155 173.124 239.76 168.72 239.576 161.385C239.576 161.328 239.591 161.271 239.62 161.221C239.649 161.172 239.691 161.131 239.741 161.103C239.791 161.075 239.848 161.061 239.906 161.063C239.963 161.065 240.019 161.082 240.068 161.113C241.317 161.977 244.786 164.961 248.155 173.124Z" fill="#3F72AF"/>
<path d="M241.323 163.907C241.717 164.31 242.068 164.752 242.371 165.227C243.057 166.168 243.857 167.281 244.739 168.507L247.107 171.775C247.467 172.205 247.788 172.666 248.066 173.154C247.633 172.794 247.245 172.382 246.911 171.929C246.242 171.135 245.366 169.999 244.443 168.714C243.519 167.429 242.708 166.24 242.152 165.369C241.825 164.912 241.548 164.422 241.323 163.907Z" fill="#263238"/>
<path d="M257.194 192.584C257.194 192.584 248.528 188.706 247.918 181.383C247.913 181.325 247.924 181.268 247.95 181.216C247.976 181.164 248.015 181.121 248.064 181.09C248.113 181.06 248.17 181.043 248.227 181.042C248.285 181.042 248.342 181.057 248.391 181.087C249.688 181.874 253.329 184.633 257.194 192.584Z" fill="#3F72AF"/>
<path d="M249.824 183.798C250.242 184.174 250.619 184.593 250.949 185.047L253.518 188.179L256.093 191.299C256.479 191.707 256.828 192.149 257.135 192.619C256.681 192.284 256.268 191.896 255.904 191.465C255.193 190.707 254.246 189.629 253.246 188.404C252.245 187.179 251.369 186.036 250.753 185.201C250.393 184.769 250.081 184.299 249.824 183.798Z" fill="#263238"/>
<path d="M252.192 214.304C252.192 214.304 246.272 206.904 249.037 200.096C249.059 200.043 249.095 199.996 249.141 199.962C249.188 199.928 249.243 199.907 249.3 199.902C249.358 199.897 249.416 199.908 249.467 199.934C249.519 199.96 249.562 200 249.593 200.049C250.416 201.333 252.387 205.454 252.192 214.304Z" fill="#3F72AF"/>
<path d="M249.634 203.103C249.837 203.629 249.984 204.175 250.073 204.731C250.321 205.868 250.611 207.206 250.931 208.686C251.251 210.166 251.553 211.498 251.801 212.635C251.96 213.174 252.069 213.727 252.127 214.286C251.867 213.783 251.668 213.25 251.535 212.7C251.245 211.699 250.89 210.332 250.558 208.757C250.226 207.182 249.966 205.797 249.8 204.779C249.684 204.228 249.628 203.666 249.634 203.103Z" fill="#263238"/>
<path d="M258.112 239.825C258.112 239.825 249.51 235.805 249.025 228.476C249.019 228.418 249.03 228.359 249.056 228.307C249.082 228.254 249.122 228.21 249.172 228.179C249.222 228.148 249.28 228.132 249.339 228.132C249.397 228.132 249.455 228.149 249.504 228.18C250.777 228.992 254.371 231.815 258.112 239.825Z" fill="#3F72AF"/>
<path d="M250.872 230.916C251.279 231.304 251.647 231.73 251.973 232.188L254.489 235.356L257.011 238.523C257.39 238.937 257.731 239.385 258.029 239.861C257.588 239.515 257.191 239.117 256.845 238.677C256.141 237.907 255.217 236.812 254.234 235.569C253.252 234.325 252.399 233.171 251.795 232.324C251.434 231.892 251.124 231.42 250.872 230.916Z" fill="#263238"/>
<path d="M275.227 202.505C275.227 202.505 275.227 202.576 275.227 202.713C275.227 202.849 275.227 203.074 275.227 203.305C275.227 203.897 275.167 204.648 275.126 205.608C275.019 207.632 274.86 210.456 274.676 213.83C274.084 217.264 272.308 221.071 269.94 224.771C268.217 227.494 266.388 229.968 264.849 232.271C263.444 234.292 262.182 236.409 261.072 238.606C260.337 240.09 259.742 241.64 259.296 243.235C259.148 243.797 259.03 244.241 258.964 244.543C258.936 244.701 258.895 244.855 258.84 245.005C258.842 244.846 258.862 244.687 258.899 244.532C258.941 244.224 259.03 243.774 259.166 243.2C259.564 241.577 260.129 239.999 260.853 238.493C261.953 236.279 263.214 234.148 264.624 232.117C266.175 229.797 267.969 227.316 269.686 224.611C272.024 220.928 273.764 217.181 274.422 213.801C274.658 210.432 274.854 207.614 275.014 205.59C275.09 204.631 275.156 203.867 275.203 203.293C275.203 203.056 275.244 202.855 275.262 202.701C275.242 202.637 275.23 202.572 275.227 202.505Z" fill="#263238"/>
<path d="M270.106 224.09C270.106 224.09 273.747 215.328 269.171 209.58C269.135 209.534 269.087 209.498 269.033 209.478C268.979 209.457 268.919 209.452 268.862 209.463C268.805 209.474 268.752 209.501 268.71 209.54C268.667 209.58 268.636 209.63 268.62 209.686C268.211 211.155 267.46 215.66 270.106 224.09Z" fill="#3F72AF"/>
<path d="M269.443 212.64C269.6 213.181 269.697 213.737 269.733 214.298C269.863 215.328 270.005 216.755 270.118 218.336C270.23 219.916 270.283 221.349 270.283 222.391C270.319 222.953 270.285 223.518 270.183 224.072C270.081 223.519 270.031 222.959 270.035 222.397C269.958 221.213 269.863 219.869 269.762 218.359C269.662 216.85 269.567 215.482 269.484 214.322C269.415 213.764 269.401 213.201 269.443 212.64Z" fill="#263238"/>
<g opacity="0.3">
<path d="M270.106 224.09C270.106 224.09 273.747 215.328 269.171 209.58C269.135 209.534 269.087 209.498 269.033 209.478C268.979 209.457 268.919 209.452 268.862 209.463C268.805 209.474 268.752 209.501 268.71 209.54C268.667 209.58 268.636 209.63 268.62 209.686C268.211 211.155 267.46 215.66 270.106 224.09Z" fill="black"/>
</g>
<path d="M258.828 245.218C258.828 245.218 261.747 236.184 256.715 230.833C256.676 230.79 256.626 230.759 256.57 230.743C256.515 230.727 256.456 230.727 256.4 230.742C256.344 230.757 256.294 230.788 256.255 230.83C256.215 230.872 256.188 230.924 256.176 230.981C255.892 232.472 255.507 237.031 258.828 245.218Z" fill="#3F72AF"/>
<path d="M257.236 233.84C257.441 234.366 257.584 234.915 257.662 235.474C257.875 236.486 258.13 237.901 258.372 239.464C258.615 241.027 258.781 242.454 258.87 243.49C258.947 244.049 258.957 244.615 258.899 245.177C258.759 244.633 258.664 244.079 258.615 243.519C258.444 242.365 258.242 241.015 258.023 239.517C257.804 238.02 257.591 236.67 257.431 235.515C257.311 234.965 257.246 234.404 257.236 233.84Z" fill="#263238"/>
<g opacity="0.3">
<path d="M258.828 245.218C258.828 245.218 261.747 236.184 256.715 230.833C256.676 230.79 256.626 230.759 256.57 230.743C256.515 230.727 256.456 230.727 256.4 230.742C256.344 230.757 256.294 230.788 256.255 230.83C256.215 230.872 256.188 230.924 256.176 230.981C255.892 232.472 255.507 237.031 258.828 245.218Z" fill="black"/>
</g>
<path d="M274.747 213.38C274.747 213.38 282.52 207.934 281.739 200.629C281.733 200.571 281.711 200.517 281.676 200.471C281.641 200.425 281.594 200.39 281.54 200.369C281.486 200.348 281.427 200.343 281.371 200.353C281.314 200.363 281.261 200.389 281.218 200.428C280.087 201.446 277.056 204.832 274.747 213.38Z" fill="#3F72AF"/>
<g opacity="0.3">
<path d="M274.747 213.38C274.747 213.38 282.52 207.934 281.739 200.629C281.733 200.571 281.711 200.517 281.676 200.471C281.641 200.425 281.594 200.39 281.54 200.369C281.486 200.348 281.427 200.343 281.371 200.353C281.314 200.363 281.261 200.389 281.218 200.428C280.087 201.446 277.056 204.832 274.747 213.38Z" fill="black"/>
</g>
<path d="M280.33 203.358C280.175 203.9 279.959 204.423 279.684 204.915C279.24 205.85 278.595 207.129 277.843 208.526C277.091 209.923 276.369 211.16 275.813 212.037C275.539 212.529 275.207 212.986 274.824 213.398C275.032 212.877 275.29 212.378 275.594 211.906C276.15 210.882 276.807 209.686 277.53 208.354L279.459 204.802C279.702 204.294 279.993 203.81 280.33 203.358Z" fill="#263238"/>
<path d="M261.966 236.261C261.966 236.261 271.343 234.799 273.853 227.896C273.874 227.842 273.879 227.784 273.868 227.727C273.857 227.671 273.831 227.618 273.793 227.576C273.754 227.533 273.705 227.501 273.65 227.485C273.595 227.468 273.536 227.467 273.48 227.482C272.018 227.92 267.779 229.607 261.966 236.261Z" fill="#3F72AF"/>
<g opacity="0.3">
<path d="M261.966 236.261C261.966 236.261 271.343 234.799 273.853 227.896C273.874 227.842 273.879 227.784 273.868 227.727C273.857 227.671 273.831 227.618 273.793 227.576C273.754 227.533 273.705 227.501 273.65 227.485C273.595 227.468 273.536 227.467 273.48 227.482C272.018 227.92 267.779 229.607 261.966 236.261Z" fill="black"/>
</g>
<path d="M271.391 229.726C271.01 230.14 270.586 230.512 270.124 230.833C269.313 231.484 268.17 232.348 266.885 233.272C265.601 234.195 264.399 234.983 263.511 235.527C263.048 235.85 262.547 236.115 262.019 236.315C262.439 235.94 262.893 235.605 263.375 235.314L266.678 232.982L269.976 230.614C270.414 230.268 270.889 229.971 271.391 229.726Z" fill="#263238"/>
<path d="M253.015 253.524L250.28 271.935H267.329L265.121 253.524H253.015Z" fill="#455A64"/>
<path d="M265.808 259.225C265.808 259.326 262.73 259.403 258.935 259.403C255.14 259.403 252.056 259.326 252.056 259.225C254.344 259.05 256.64 258.99 258.935 259.047C261.227 258.99 263.521 259.05 265.808 259.225Z" fill="#263238"/>
<path d="M266.14 260.693C266.14 260.794 262.96 260.871 259.036 260.871C255.111 260.871 251.932 260.794 251.932 260.693C251.932 260.592 255.111 260.516 259.036 260.516C262.96 260.516 266.14 260.592 266.14 260.693Z" fill="#263238"/>
<path d="M199.842 74.9117C199.842 74.9117 199.682 74.9117 199.374 74.9117C198.924 74.885 198.474 74.885 198.024 74.9117C196.285 75.0135 194.577 75.414 192.974 76.0957C190.434 77.1606 188.223 78.8832 186.569 81.0862C185.549 82.4618 184.791 84.0129 184.331 85.6624C183.295 89.5916 183.855 93.7711 185.888 97.2893C186.442 98.2633 187.119 99.1626 187.901 99.9651C188.69 100.815 189.609 101.535 190.624 102.096C191.666 102.682 192.845 102.979 194.04 102.955C195.272 102.94 196.453 102.462 197.349 101.617C197.782 101.163 198.122 100.628 198.348 100.043C198.575 99.4581 198.684 98.8341 198.669 98.2069C198.66 96.9038 198.247 95.6356 197.485 94.5779C195.952 92.4171 193.466 90.9667 190.819 90.1853C188.075 89.4146 185.178 89.3738 182.413 90.0669C181.002 90.434 179.642 90.9749 178.364 91.6771C177.074 92.4052 175.902 93.3254 174.889 94.4062C174.646 94.6845 174.368 94.939 174.149 95.2469L173.48 96.1467C173.073 96.7808 172.709 97.4414 172.391 98.124C171.757 99.51 171.325 100.979 171.106 102.487C170.676 105.5 171.086 108.572 172.29 111.367C173.441 114.098 175.445 116.382 178.003 117.879C179.243 118.588 180.627 119.007 182.052 119.104C183.449 119.183 184.838 118.849 186.048 118.145C187.248 117.482 188.197 116.442 188.747 115.185C189.267 113.947 189.303 112.559 188.848 111.296C188.38 110.077 187.615 108.994 186.622 108.147C185.659 107.314 184.549 106.67 183.348 106.246C181.008 105.508 178.503 105.465 176.138 106.122C173.925 106.722 171.893 107.854 170.218 109.419C168.692 110.881 167.531 112.679 166.826 114.67C165.593 118.126 165.649 121.91 166.986 125.326C168.028 127.877 169.705 130.119 171.858 131.838C173.214 132.926 174.724 133.806 176.339 134.449C176.896 134.656 177.328 134.81 177.624 134.893L178.062 135.035C178.062 135.035 177.908 135.006 177.612 134.923C177.175 134.806 176.744 134.665 176.321 134.502C174.685 133.888 173.155 133.021 171.787 131.933C169.597 130.215 167.887 127.962 166.82 125.392C165.46 121.943 165.391 118.119 166.624 114.623C167.331 112.602 168.505 110.776 170.052 109.295C171.75 107.698 173.813 106.54 176.061 105.921C178.475 105.247 181.034 105.288 183.425 106.039C184.661 106.47 185.804 107.131 186.794 107.987C187.826 108.862 188.62 109.984 189.103 111.249C189.59 112.569 189.568 114.022 189.043 115.328C188.46 116.633 187.469 117.715 186.22 118.412C184.965 119.143 183.525 119.493 182.076 119.418C180.616 119.316 179.199 118.883 177.932 118.151C175.315 116.634 173.261 114.31 172.077 111.527C170.847 108.681 170.425 105.551 170.857 102.481C171.083 100.943 171.526 99.4439 172.171 98.0293C172.497 97.3321 172.869 96.6577 173.284 96.0106L173.971 95.093C174.19 94.7792 174.474 94.501 174.723 94.2286C175.76 93.1273 176.957 92.1893 178.275 91.4462C179.583 90.7306 180.975 90.1817 182.419 89.8123C185.236 89.1063 188.189 89.1491 190.985 89.9366C193.685 90.7418 196.213 92.2158 197.805 94.4536C198.605 95.5555 199.04 96.8805 199.048 98.2424C199.077 99.5826 198.572 100.879 197.645 101.848C196.698 102.737 195.451 103.238 194.152 103.251C192.909 103.279 191.682 102.97 190.6 102.357C189.561 101.783 188.622 101.046 187.818 100.172C187.026 99.3518 186.339 98.4349 185.776 97.4432C183.706 93.8597 183.144 89.601 184.213 85.6032C184.687 83.9346 185.463 82.3674 186.504 80.9797C188.188 78.7599 190.437 77.0325 193.016 75.9773C194.632 75.3088 196.354 74.9319 198.101 74.8643C198.554 74.8344 199.009 74.8344 199.463 74.8643L199.842 74.9117Z" fill="#263238"/>
<path d="M219.608 134.147H136.604V198.166H219.608V134.147Z" fill="#3F72AF"/>
<path d="M136.604 134.147L151.937 148.45H233.532L219.608 134.147H136.604Z" fill="#3F72AF"/>
<path d="M136.604 134.147L219.632 133.999H219.697L219.744 134.041L233.526 148.195L233.668 148.343L233.923 148.604H233.556L151.96 148.539H151.925L136.604 134.147L151.996 148.355H151.931L233.526 148.296L233.42 148.556L233.272 148.408L219.496 134.254L219.602 134.301L136.604 134.147Z" fill="#263238"/>
<path d="M161.539 163.67C161.089 163.687 160.664 163.879 160.355 164.205C160.045 164.532 159.877 164.967 159.885 165.417C159.893 165.867 160.077 166.296 160.398 166.611C160.719 166.926 161.151 167.103 161.601 167.103C162.051 167.103 162.483 166.926 162.804 166.611C163.125 166.296 163.31 165.867 163.318 165.417C163.326 164.967 163.157 164.532 162.848 164.205C162.538 163.879 162.113 163.687 161.663 163.67" fill="#263238"/>
<path d="M181.152 163.67C180.704 163.687 180.281 163.879 179.973 164.205C179.666 164.531 179.498 164.964 179.507 165.412C179.515 165.86 179.699 166.287 180.019 166.601C180.339 166.915 180.769 167.091 181.217 167.091C181.665 167.091 182.095 166.915 182.415 166.601C182.735 166.287 182.919 165.86 182.928 165.412C182.936 164.964 182.769 164.531 182.461 164.205C182.153 163.879 181.73 163.687 181.282 163.67" fill="#263238"/>
<path d="M181.265 178.991C180.922 177.683 180.366 176.441 179.619 175.315C178.787 174.11 177.72 173.087 176.481 172.308C174.987 171.316 173.244 170.764 171.451 170.715C169.658 170.665 167.887 171.121 166.34 172.029C165.063 172.742 163.942 173.705 163.043 174.859C162.233 175.944 161.611 177.156 161.202 178.447C161.206 178.35 161.222 178.255 161.249 178.162C161.306 177.896 161.379 177.633 161.468 177.375C161.792 176.424 162.266 175.531 162.871 174.729C163.763 173.52 164.899 172.512 166.204 171.769C167.791 170.822 169.614 170.346 171.461 170.396C173.308 170.446 175.102 171.021 176.635 172.053C177.895 172.863 178.972 173.928 179.796 175.179C180.359 176.014 180.784 176.933 181.057 177.902C181.13 178.165 181.188 178.432 181.229 178.701C181.249 178.797 181.261 178.894 181.265 178.991Z" fill="#263238"/>
<path opacity="0.5" d="M136.793 134.852L151.475 153.464H219.608V148.45H151.937L136.793 134.852Z" fill="black"/>
<path d="M203.24 198.024C203.157 198.024 203.086 186.888 203.086 173.16C203.086 159.432 203.157 148.296 203.24 148.296C203.322 148.296 203.399 159.426 203.399 173.16C203.399 186.894 203.328 198.024 203.24 198.024Z" fill="#263238"/>
<path d="M216.275 183.508H208.958V191.778H216.275V183.508Z" fill="#F5F5F5"/>
<path d="M136.604 134.147L119.566 148.45H136.604V134.147Z" fill="#3F72AF"/>
<g opacity="0.4">
<path d="M136.604 134.147L119.566 148.45H136.604V134.147Z" fill="black"/>
</g>
<path d="M222.059 198.166H126.623V271.775H222.059V198.166Z" fill="#3F72AF"/>
<path opacity="0.3" d="M222.059 198.166H126.623V271.775H222.059V198.166Z" fill="black"/>
<path d="M198.148 271.254C198.066 271.254 197.995 254.85 197.995 234.616C197.995 214.381 198.066 197.971 198.148 197.971C198.231 197.971 198.302 214.375 198.302 234.616C198.302 254.856 198.231 271.254 198.148 271.254Z" fill="#263238"/>
<path d="M213.967 255.022H206.65V263.292H213.967V255.022Z" fill="#F5F5F5"/>
<path d="M166.577 198.361H155.738V214.067H166.577V198.361Z" fill="#263238"/>
<path d="M166.577 255.851H155.738V271.556H166.577V255.851Z" fill="#263238"/>
<path d="M221.23 198.166H220.982H220.265L217.513 198.196L207.372 198.243L173.93 198.32L140.476 198.279L130.341 198.231L127.588 198.202L130.341 198.172L140.476 198.125L173.93 198.077L207.372 198.125L217.513 198.172L220.265 198.202H220.982L221.23 198.166Z" fill="#263238"/>
</svg>
